<svg width="48" height="48" viewBox="0 0 48 48" fill="none" stroke="currentColor" stroke-width="1"
  xmlns="http://www.w3.org/2000/svg">
  <path
    d="M24 16.9199C25.6811 16.9199 27.3245 17.4184 28.7223 18.3524C30.1202 19.2864 31.2096 20.6139 31.853 22.1671C32.4963 23.7203 32.6646 25.4294 32.3367 27.0782C32.0087 28.727 31.1992 30.2416 30.0104 31.4303C28.8217 32.6191 27.3071 33.4286 25.6583 33.7566C24.0094 34.0846 22.3004 33.9162 20.7472 33.2729C19.194 32.6296 17.8665 31.5401 16.9325 30.1423C15.9985 28.7445 15.5 27.1011 15.5 25.4199C15.5 23.1656 16.3955 21.0036 17.9896 19.4095C19.5837 17.8155 21.7457 16.9199 24 16.9199Z"
    stroke="inherit" stroke-width="inherit" stroke-linecap="round" stroke-linejoin="round" />
  <path
    d="M39.5 12.0195H31.5L28.906 8.01953H19.094L16.5 12.0195H8.5C7.43913 12.0195 6.42172 12.441 5.67157 13.1911C4.92143 13.9412 4.5 14.9587 4.5 16.0195V34.8195C4.5 35.8804 4.92143 36.8978 5.67157 37.648C6.42172 38.3981 7.43913 38.8195 8.5 38.8195H39.5C40.5609 38.8195 41.5783 38.3981 42.3284 37.648C43.0786 36.8978 43.5 35.8804 43.5 34.8195V16.0195C43.5 14.9587 43.0786 13.9412 42.3284 13.1911C41.5783 12.441 40.5609 12.0195 39.5 12.0195Z"
    stroke="inherit" stroke-width="inherit" stroke-linecap="round" stroke-linejoin="round" />
</svg>